<?xml version="1.0" encoding="utf-8"?>
<!-- Generator: Adobe Illustrator 27.5.0, SVG Export Plug-In . SVG Version: 6.00 Build 0)  -->
<svg version="1.1" xmlns="http://www.w3.org/2000/svg" xmlns:xlink="http://www.w3.org/1999/xlink" x="0px" y="0px"
	 viewBox="0 0 500 500" style="enable-background:new 0 0 500 500;" xml:space="preserve">
<g id="Background_Complete">
	<g>
		<rect y="382.398" style="fill:#EBEBEB;" width="500" height="0.25"/>
		<rect x="416.779" y="398.494" style="fill:#EBEBEB;" width="33.122" height="0.25"/>
		<rect x="322.527" y="401.208" style="fill:#EBEBEB;" width="8.693" height="0.25"/>
		<rect x="396.586" y="389.208" style="fill:#EBEBEB;" width="19.192" height="0.25"/>
		<rect x="52.459" y="390.888" style="fill:#EBEBEB;" width="43.193" height="0.25"/>
		<rect x="104.556" y="390.888" style="fill:#EBEBEB;" width="6.333" height="0.25"/>
		<rect x="131.471" y="395.111" style="fill:#EBEBEB;" width="93.676" height="0.25"/>
		<path style="fill:#EBEBEB;" d="M237.014,337.8H43.915c-3.147,0-5.708-2.561-5.708-5.708V60.66c0-3.147,2.561-5.708,5.708-5.708
			h193.099c3.146,0,5.707,2.561,5.707,5.708v271.432C242.721,335.239,240.16,337.8,237.014,337.8z M43.915,55.203
			c-3.01,0-5.458,2.448-5.458,5.458v271.432c0,3.01,2.448,5.458,5.458,5.458h193.099c3.009,0,5.457-2.448,5.457-5.458V60.66
			c0-3.009-2.448-5.458-5.457-5.458H43.915z"/>
		<path style="fill:#EBEBEB;" d="M453.31,337.8H260.212c-3.147,0-5.707-2.561-5.707-5.708V60.66c0-3.147,2.561-5.708,5.707-5.708
			H453.31c3.148,0,5.708,2.561,5.708,5.708v271.432C459.019,335.239,456.458,337.8,453.31,337.8z M260.212,55.203
			c-3.009,0-5.457,2.448-5.457,5.458v271.432c0,3.01,2.448,5.458,5.457,5.458H453.31c3.01,0,5.458-2.448,5.458-5.458V60.66
			c0-3.009-2.448-5.458-5.458-5.458H260.212z"/>
	</g>
	<g>
		<circle style="fill:#F5F5F5;" cx="335.395" cy="148.289" r="41.546"/>
		<path style="fill:#EBEBEB;" d="M409.547,140.098c0-3.737-3.03-6.767-6.767-6.767c-0.676,0-1.327,0.102-1.943,0.286
			c0.099-0.679,0.152-1.372,0.152-2.078c0-7.914-6.416-14.33-14.33-14.33c-0.902,0-1.784,0.087-2.64,0.247
			c-2.203-3.605-6.162-6.019-10.695-6.019c-6.862,0-12.428,5.513-12.53,12.351c-0.07-0.001-0.138-0.011-0.209-0.011
			c-6.375,0-11.544,5.168-11.544,11.544s5.168,11.544,11.544,11.544h42.394l-0.009-0.01
			C406.618,146.754,409.547,143.772,409.547,140.098z"/>
		<path style="fill:#EBEBEB;" d="M302.613,177.34c0-3.737-3.03-6.767-6.767-6.767c-0.676,0-1.327,0.102-1.943,0.286
			c0.099-0.678,0.152-1.372,0.152-2.078c0-7.914-6.416-14.33-14.331-14.33c-0.902,0-1.784,0.087-2.64,0.247
			c-2.203-3.605-6.162-6.019-10.695-6.019c-6.862,0-12.428,5.513-12.53,12.351c-0.07-0.001-0.138-0.011-0.209-0.011
			c-6.375,0-11.544,5.168-11.544,11.544c0,6.376,5.168,11.544,11.544,11.544h42.394l-0.009-0.01
			C299.685,183.995,302.613,181.013,302.613,177.34z"/>
		<path style="fill:#EBEBEB;" d="M115.954,190.146c0-3.737-3.03-6.767-6.767-6.767c-0.676,0-1.327,0.102-1.943,0.286
			c0.099-0.679,0.152-1.372,0.152-2.078c0-7.915-6.416-14.331-14.331-14.331c-0.902,0-1.784,0.087-2.64,0.247
			c-2.202-3.605-6.162-6.019-10.695-6.019c-6.862,0-12.428,5.513-12.53,12.351c-0.07-0.001-0.138-0.01-0.209-0.01
			c-6.376,0-11.544,5.168-11.544,11.544c0,6.376,5.168,11.544,11.544,11.544h42.394l-0.009-0.01
			C113.025,196.801,115.954,193.819,115.954,190.146z"/>
		<path style="fill:#EBEBEB;" d="M405.636,222.436c0-2.259-1.831-4.09-4.09-4.09c-0.408,0-0.802,0.062-1.174,0.173
			c0.06-0.41,0.092-0.829,0.092-1.256c0-4.784-3.878-8.661-8.661-8.661c-0.545,0-1.078,0.053-1.596,0.149
			c-1.331-2.179-3.724-3.638-6.464-3.638c-4.147,0-7.512,3.332-7.573,7.465c-0.042-0.001-0.083-0.006-0.126-0.006
			c-3.853,0-6.977,3.124-6.977,6.977s3.124,6.977,6.977,6.977h25.623l-0.005-0.006C403.866,226.459,405.636,224.656,405.636,222.436
			z"/>
		<path style="fill:#EBEBEB;" d="M158.43,90.915c0-2.259-1.831-4.09-4.09-4.09c-0.409,0-0.802,0.062-1.174,0.173
			c0.06-0.41,0.092-0.829,0.092-1.256c0-4.784-3.878-8.661-8.661-8.661c-0.545,0-1.078,0.053-1.596,0.149
			c-1.331-2.179-3.724-3.638-6.464-3.638c-4.147,0-7.512,3.332-7.573,7.465c-0.042-0.001-0.083-0.006-0.126-0.006
			c-3.853,0-6.977,3.124-6.977,6.977c0,3.854,3.124,6.977,6.977,6.977h25.624l-0.005-0.006
			C156.661,94.938,158.43,93.135,158.43,90.915z"/>
		<polygon style="fill:#EBEBEB;" points="89.857,243.665 116.939,366.667 121.86,364.359 93.419,242.969 		"/>
		<g>
			<g>
				<path style="fill:#E6E6E6;" d="M400.779,366.077c0,0-16.738-115.577,20.946-235.116l-5.913-4.562
					c0,0-44.164,90.401-37.734,242.92L400.779,366.077z"/>
			</g>
			<g>
				<path style="fill:#E0E0E0;" d="M431.983,99.579c13.817-9.054,34.271,5.356,37.075,27.871c0,0-2.383-1.472-6.343-3.014
					c-1.071-5.662-2.103-10.677-2.103-10.677l0.735,10.167c-1.214-0.435-2.542-0.862-3.978-1.252l-0.955-5.472l-0.451,5.109
					c-1.843-0.445-3.838-0.811-5.94-1.052l-2.579-15.967l-1.338,15.688c-1.979-0.055-4.028,0.023-6.132,0.272l-1.58-10.865
					l-0.014,11.079c-1.701,0.271-3.433,0.67-5.18,1.196l-1.892-16.205c0,0,0.056,9.112-0.048,16.838
					c-4.428,1.586-8.937,4.085-13.343,7.85l-0.144-1.995C417.772,129.15,419.372,107.843,431.983,99.579z"/>
				<path style="fill:#E0E0E0;" d="M412.891,92.343c-10.969-12.352-34.479-3.792-43.073,17.207c0,0,2.685-0.798,6.91-1.251
					c2.514-5.186,4.821-9.756,4.821-9.756l-3.368,9.621c1.286-0.102,2.679-0.167,4.167-0.168l2.353-5.032l-0.9,5.049
					c1.896,0.052,3.916,0.221,6.009,0.538l6.664-14.737l-2.811,15.492c1.924,0.465,3.882,1.075,5.847,1.866l4.366-10.073
					l-2.884,10.698c1.571,0.706,3.138,1.545,4.688,2.509l6.063-15.146c0,0-2.437,8.781-4.357,16.264
					c3.859,2.688,7.558,6.28,10.826,11.066l0.661-1.888C418.875,124.601,422.902,103.617,412.891,92.343z"/>
				<path style="fill:#E0E0E0;" d="M402.316,121.633c10.997-10.736,19.26-1.392,19.26-1.392c-4.13,1.072-7.814,3.716-11.025,7.087
					l-1.488-1.937l0.239,3.309c-0.767,0.882-1.502,1.802-2.209,2.747l-2.52-5.732l1.074,7.76c-1.012,1.486-1.954,3.008-2.824,4.527
					l-1.11-5.686l0.084,7.535c-0.915,1.7-1.74,3.366-2.466,4.937l-1.198-10.427l-0.158,13.484c-1.76,4.16-2.673,7.083-2.673,7.083
					S391.319,132.369,402.316,121.633z"/>
				<path style="fill:#E0E0E0;" d="M432.011,146.992l-2.272,1.308c-0.333-1.746-0.715-3.583-1.151-5.443l1.547-2.827l-1.943,1.2
					c-0.155-0.618-0.317-1.234-0.484-1.849l1.98-5.54l-2.963,2.207c-1.6-4.993-3.643-9.387-6.196-11.485
					c0,0,25.226,8.059,10.97,35.252c0,0-0.456-4.306-1.471-9.956L432.011,146.992z"/>
				<path style="fill:#E0E0E0;" d="M407.204,124.749l-4.034-7.597l1.659,7.913c-0.4,0.066-0.807,0.14-1.219,0.222l-5.228-6.509
					l1.288,7.495c-1.676,0.505-3.426,1.137-5.25,1.936c-1.848,0.808-3.671,1.74-5.452,2.751l-2.548-6.648l1.186,7.441
					c-1.731,1.033-3.414,2.133-5.032,3.266l-1.268-5.862l0.119,6.679c-1.981,1.431-3.853,2.896-5.576,4.323l0.156-10.618
					l-1.544,11.786c-1.766,1.509-3.348,2.947-4.7,4.225l-0.195-7.366l-1.862,9.354c-1.945,1.927-3.055,3.16-3.055,3.16
					c1.014-25.792,11.001-36.035,27.545-38.8c16.544-2.765,28.46,14.413,28.46,14.413S415.576,123.91,407.204,124.749z"/>
				<path style="fill:#E0E0E0;" d="M455.442,156.268l-1.514,7.688c-0.725-1.909-1.716-4.359-2.965-7.086l1.355-11.252l-2.479,8.87
					c-1.818-3.735-4.066-7.801-6.718-11.597l2.354-7.8l-3.819,5.788c-0.763-1.004-1.554-1.982-2.377-2.917l1.339-4.911l-2.065,4.104
					c-0.564-0.612-1.142-1.203-1.733-1.772l1.625-6.55l-2.58,5.663c-1.669-1.498-3.435-2.799-5.297-3.824l2.63-8.01
					c0,0-1.852,3.261-4.123,7.259c-2.592-1.186-5.356-1.833-8.285-1.732c0,0,4.968-7.989,14.187-10.748
					c9.219-2.759,28.997,13.891,20.4,50.602c0,0-0.262-0.836-0.774-2.262L455.442,156.268z"/>
				<path style="fill:#E0E0E0;" d="M440.282,84.944l1.569,4.659c-0.508,0.027-1.086,0.1-1.721,0.245l-1.894-6.064l1.263,6.226
					c-1.022,0.295-2.168,0.781-3.396,1.55l-2.606-8.194l1.531,8.929c-0.415,0.307-0.836,0.646-1.264,1.023l-2.941-7.69l2.22,8.354
					c-1.783,1.718-3.652,4.087-5.508,7.337l-0.815-11.274l-1.296,15.388c-1.819,3.933-3.585,8.825-5.2,14.906
					c0,0-1.6-40.959,8.268-45.597c9.868-4.637,15.741,15.083,15.741,15.083s-0.492-0.166-1.35-0.22L440.282,84.944z"/>
				<path style="fill:#E0E0E0;" d="M426.183,130.548l-0.881,7.772l-2.961-7.494l-4.024,5.867l-1.572-5.462l-4.625,3.88
					c0,0,0.566-9.91,3.522-14.44C418.598,116.14,427.435,119.322,426.183,130.548z"/>
			</g>
		</g>
		<g>
			<path style="fill:#EBEBEB;" d="M303.011,255.486V201.31c0,0-10.99,11.668-18.281,10.086c-7.29-1.582-16.785,3.934-16.785,3.934
				s9.536-1.391,13.076,2.48c3.54,3.871,19.339,4.284,19.339,4.284v35.38L303.011,255.486z"/>
			<polygon style="fill:#E0E0E0;" points="351.496,238.879 349.001,238.879 349.001,242.286 340.757,242.286 340.757,238.879 
				332.663,238.879 332.663,242.286 324.419,242.286 324.419,238.879 316.326,238.879 316.326,242.286 308.082,242.286 
				308.082,238.879 299.989,238.879 299.989,242.286 291.745,242.286 291.745,238.879 283.652,238.879 283.652,242.286 
				275.408,242.286 275.408,238.879 267.315,238.879 267.315,242.286 259.071,242.286 259.071,238.879 256.299,238.879 
				248.268,303.078 359.804,302.615 			"/>
			<polygon style="fill:#EBEBEB;" points="369.244,285.48 365.815,285.48 365.815,290.161 354.488,290.161 354.488,285.48 
				343.369,285.48 343.369,290.161 332.042,290.161 332.042,285.48 320.922,285.48 320.922,290.161 309.595,290.161 309.595,285.48 
				298.476,285.48 298.476,290.161 287.149,290.161 287.149,285.48 276.03,285.48 276.03,290.161 264.703,290.161 264.703,285.48 
				253.583,285.48 253.583,290.161 242.256,290.161 242.256,285.48 238.449,285.48 227.413,373.687 380.658,373.049 			"/>
		</g>
		<path style="fill:#F5F5F5;" d="M425.846,363.301c-2.364-2.671-4.597-5.4-7.071-7.972c-0.216-0.224-0.318-0.35-0.358-0.422
			c-0.807-0.538-1.672-0.985-2.547-1.406c-0.155-0.054-0.674-0.262-1.211-0.459c-0.995-0.365-1.981-0.756-2.964-1.151
			c-6.215-2.501-11.796-5.397-16.483-10.331c-2.569-2.703-4.62-5.856-7.283-8.468c-0.064,0.087-0.588-0.188-0.836-0.397
			c-0.792-0.091-1.865-0.249-2.007-0.252c-1.074-0.017-2.151,0.018-3.224,0.066c-1.534,0.069-3.063,0.194-4.592,0.328
			c-5.958,8.722-13.495,20.628-16.822,22.203c-5.146,2.437-52.612,14.969-56.107,14.23c-3.495-0.74-21.823,0.74-26.423,0.569
			c-4.6-0.171-12.929-2.212-24.985-7.755c-12.056-5.543-18.654-5.584-33.182-10.211c-14.527-4.626-24.267-6.391-32.768,0.73
			c-8.501,7.12-31.851-7.911-39.128-10.054c-7.277-2.142-21.206-14.473-30.707-8.72s-17.4,8.489-29.268,18.774
			c-11.868,10.285-35.42,30.146-35.42,30.146h400.958l-4.603-8.052C439.944,374.214,431.845,370.078,425.846,363.301z"/>
		<path style="fill:#E0E0E0;" d="M43.176,265c0,0,11.67-20.967,43.298-39.116c0,0,25.735-2.194,54.793,10.473
			c0,0,5.891,9.786-0.803,13.643c-6.695,3.857-12.254-3.9-12.254-3.9s-1.236,11.818-9.97,12.161
			c-8.734,0.343-11.305-8.262-11.305-8.262s-0.858,10.846-11.283,13.587c-9.052,2.38-14.676-5.326-14.676-5.326
			s-1.801,8.914-9.911,11.486c-6.519,2.067-10.986-3.542-10.986-3.542s-1.871,9.674-8.794,9.674
			C45.352,275.879,43.176,265,43.176,265z"/>
	</g>
</g>
<g id="Background_Simple" style="display:none;">
	<g style="display:inline;">
		<path style="fill:#407BFF;" d="M302.228,76.249c16.529-5.465,35.058-5.605,54.932,1.93c41.493,15.73,59.827,63.772,57.749,105.288
			c-2.098,41.918-25.461,81.623-66.827,94.835c-21.43,6.844-44.581,6.235-66.83,2.909c-13.228-1.978-26.959-4.859-39.743-0.926
			c-21.073,6.482-31.453,27.588-46.3,42.029c-30.012,29.192-78.029,25.498-107.178-3.172c-15.841-15.581-25.407-37.73-23.291-60.103
			c4.447-47.037,49.152-64.268,90.955-61.703c29.889,1.834,64.482,0.651,73.718-33.76C239.667,125.38,266.197,88.162,302.228,76.249
			z"/>
		<path style="opacity:0.9;fill:#FFFFFF;" d="M302.228,76.249c16.529-5.465,35.058-5.605,54.932,1.93
			c41.493,15.73,59.827,63.772,57.749,105.288c-2.098,41.918-25.461,81.623-66.827,94.835c-21.43,6.844-44.581,6.235-66.83,2.909
			c-13.228-1.978-26.959-4.859-39.743-0.926c-21.073,6.482-31.453,27.588-46.3,42.029c-30.012,29.192-78.029,25.498-107.178-3.172
			c-15.841-15.581-25.407-37.73-23.291-60.103c4.447-47.037,49.152-64.268,90.955-61.703c29.889,1.834,64.482,0.651,73.718-33.76
			C239.667,125.38,266.197,88.162,302.228,76.249z"/>
	</g>
</g>
<g id="Shadow_1_">
	<ellipse id="_x3C_Path_x3E__359_" style="fill:#F5F5F5;" cx="250" cy="416.238" rx="193.889" ry="11.323"/>
</g>
<g id="Sand">
	<g>
		<g>
			<path style="fill:#407BFF;" d="M383.989,366.907c0,0,4.352-6.369,8.308-8.149c3.956-1.78,4.608-8.544,6.755-8.921
				c2.147-0.376,4.52,5.875,8.278,7.695c3.758,1.819,9.449,9.336,9.449,9.336L383.989,366.907z"/>
			<path style="opacity:0.8;fill:#FFFFFF;enable-background:new    ;" d="M383.989,366.907c0,0,4.352-6.369,8.308-8.149
				c3.956-1.78,4.608-8.544,6.755-8.921c2.147-0.376,4.52,5.875,8.278,7.695c3.758,1.819,9.449,9.336,9.449,9.336L383.989,366.907z"
				/>
			<polygon style="fill:#407BFF;" points="415.623,412.774 383.979,412.774 379.979,366.868 419.623,366.868 			"/>
			<rect x="378.065" y="364.495" style="fill:#407BFF;" width="43.472" height="4.825"/>
			<rect x="378.065" y="364.495" style="opacity:0.2;fill:#FFFFFF;enable-background:new    ;" width="43.472" height="4.825"/>
			<path style="fill:#263238;" d="M397.926,367.887c2.885,4.518,15.21,23.175,22.855,24.533l0.944-2.26
				c0,0-6.848,0.82-21.966-23.413c-0.302-0.483-0.929-0.658-1.431-0.388l0,0C397.774,366.656,397.588,367.358,397.926,367.887z"/>
		</g>
		<g>
			<path style="fill:#407BFF;" d="M352.911,353.409L352.911,353.409c1.368-0.429,2.82,0.353,3.215,1.732l5.407,18.892l7.028-2.813
				c0,0,4.231,15.752-3.758,18.239c-7.813,2.432-13.846-12.107-13.846-12.107l7.141-1.976l-6.818-18.658
				C350.78,355.351,351.523,353.845,352.911,353.409z"/>
			<path style="opacity:0.4;fill:#FFFFFF;enable-background:new    ;" d="M364.8,389.46c-7.81,2.43-13.84-12.11-13.84-12.11
				l7.14-1.97c0,0,1.23,2.1,2.61,1.58c1.39-0.53,0.82-2.93,0.82-2.93l7.03-2.81C368.56,371.22,372.79,386.97,364.8,389.46z"/>
		</g>
		<g>
			<path style="fill:#407BFF;" d="M424.667,416.651c-3.932-1.949-7.947-3.792-9.232-3.877c-2.769-0.183-4.352-1.414-6.33-3.765
				c-1.978-2.352-2.769-5.069-6.33-8.853c-3.561-3.784,0.396-5.295-7.121-6.269c-7.517-0.974-4.615-0.356-9.231-3.683
				c-4.616-3.327-3.686-3.327-9.095-5.701c-5.41-2.374-2.245-3.281-8.575-3.816c-4.371-0.369-11.287,1.934-14.871,4.492
				c-1.591,1.136-2.406,3.019-3.974,4.016c-1.766,1.123-4.518-0.964-4.229,2.804c0.075,0.986,0.359,1.986,0.13,2.948
				c-0.51,2.139-9.321,2.136-11.555,2.804c-0.516,0.154-1.081,0.348-1.344,0.817c-0.51,0.91,0.257,2.52-0.732,2.854
				c-0.31,0.105-0.653-0.015-0.974,0.047c-1.194,0.229-0.88,2.368-1.991,2.86c-1.062,0.47-2.409-0.507-3.65-0.042
				c-0.956,0.358-1.271,1.644-2.101,2.151c-1.446,0.882-2.953,1.534-4.38,2.469c-2.483,1.627-4.631,3.618-7.294,5.052l-7.121,1.946
				l-2.127,0.747H424.667z"/>
			<path style="opacity:0.8;fill:#FFFFFF;enable-background:new    ;" d="M424.667,416.651c-3.932-1.949-7.947-3.792-9.232-3.877
				c-2.769-0.183-4.352-1.414-6.33-3.765c-1.978-2.352-2.769-5.069-6.33-8.853c-3.561-3.784,0.396-5.295-7.121-6.269
				c-7.517-0.974-4.615-0.356-9.231-3.683c-4.616-3.327-3.686-3.327-9.095-5.701c-5.41-2.374-2.245-3.281-8.575-3.816
				c-4.371-0.369-11.287,1.934-14.871,4.492c-1.591,1.136-2.406,3.019-3.974,4.016c-1.766,1.123-4.518-0.964-4.229,2.804
				c0.075,0.986,0.359,1.986,0.13,2.948c-0.51,2.139-9.321,2.136-11.555,2.804c-0.516,0.154-1.081,0.348-1.344,0.817
				c-0.51,0.91,0.257,2.52-0.732,2.854c-0.31,0.105-0.653-0.015-0.974,0.047c-1.194,0.229-0.88,2.368-1.991,2.86
				c-1.062,0.47-2.409-0.507-3.65-0.042c-0.956,0.358-1.271,1.644-2.101,2.151c-1.446,0.882-2.953,1.534-4.38,2.469
				c-2.483,1.627-4.631,3.618-7.294,5.052l-7.121,1.946l-2.127,0.747H424.667z"/>
		</g>
		<g>
			<path style="fill:#407BFF;" d="M340.75,398.451c0,0.08,0,0.14-0.01,0.22v0.01c-0.04,3.51-1.07,6.79-2.84,9.55
				c-0.15,0.23-0.3,0.46-0.47,0.69c-1.05,1.49-2.32,2.82-3.76,3.93c-0.33,0.26-0.67,0.51-1.02,0.73h-0.01
				c-0.08,0.06-0.17,0.12-0.25,0.16c-0.11,0.08-0.22,0.14-0.33,0.21c-0.17,0.12-0.35,0.22-0.53,0.32c-0.28,0.16-0.57,0.32-0.86,0.46
				h-0.01c-2.44,1.23-5.19,1.92-8.11,1.92c-5.18,0-9.86-2.17-13.16-5.64c-1.22-1.26-2.25-2.7-3.05-4.27c-1.28-2.49-2-5.31-2-8.29
				v-0.06c0-0.51,0.02-1.02,0.07-1.52c0.2-2.41,0.88-4.68,1.93-6.72c0.27-0.53,0.56-1.04,0.88-1.53c1.05-1.63,2.35-3.08,3.84-4.3
				c0.48-0.39,0.97-0.75,1.49-1.08c0.18-0.13,0.37-0.25,0.56-0.36c1.42-0.87,2.96-1.54,4.6-1.99c0.14-0.04,0.28-0.08,0.42-0.11
				c1.41-0.35,2.89-0.54,4.42-0.54c0.47,0,0.93,0.02,1.38,0.06c0.12,0,0.23,0.01,0.35,0.02h0.01c2.07,0.2,4.03,0.74,5.84,1.58
				c0.07,0.03,0.15,0.07,0.23,0.11c1.56,0.74,2.99,1.69,4.27,2.82c3.18,2.83,5.37,6.77,5.96,11.21v0.03
				C340.7,396.851,340.75,397.641,340.75,398.451z"/>
			<path style="opacity:0.6;fill:#FFFFFF;enable-background:new    ;" d="M340.75,398.451c0,7.13-4.1,13.31-10.08,16.28
				c-0.01,0.01-0.01,0-0.01,0c-0.72-0.6-1-1.23-1-1.23c3.36-9.8,0-15.05,0-15.05l0.01-0.1l0.24-1.57l0.05-0.29
				c0.52-2.91,1.83-8.36,4.67-11.66C338.38,388.161,340.75,393.031,340.75,398.451z"/>
			<path style="opacity:0.6;fill:#FFFFFF;enable-background:new    ;" d="M308.59,395.301c0,0-3.19,3.19-2.25,11.44
				c-1.28-2.49-2-5.31-2-8.29c0-5.7,2.62-10.79,6.72-14.13C309.3,387.711,308.37,391.791,308.59,395.301z"/>
			<path style="opacity:0.2;fill:#FFFFFF;enable-background:new    ;" d="M334.63,384.831c-4,4.64-4.97,13.62-4.97,13.62
				c-10.98,2.69-21.07-3.15-21.07-3.15c-0.22-3.51,0.72-7.59,2.47-10.98c3.14-2.55,7.13-4.08,11.49-4.08
				C327.19,380.241,331.41,381.981,334.63,384.831z"/>
			<path style="opacity:0.2;fill:#FFFFFF;enable-background:new    ;" d="M330.66,414.731c-2.44,1.23-5.19,1.92-8.11,1.92
				c-5.18,0-9.86-2.17-13.16-5.64c3.41,2.03,10.38,4.87,20.27,2.49C329.66,413.501,329.94,414.131,330.66,414.731z"/>
			<g style="opacity:0.2;enable-background:new    ;">
				<path d="M330.36,382.011c-0.48,0.67-0.91,1.36-1.31,2.08c-0.74,1.38-1.38,2.81-1.91,4.28c-0.56,1.47-0.99,2.98-1.4,4.49
					c-0.39,1.52-0.74,3.06-1.03,4.61c0.09-1.58,0.34-3.14,0.66-4.69c0.33-1.55,0.78-3.08,1.3-4.58c0.58-1.48,1.22-2.94,2.04-4.3
					c0.44-0.69,0.91-1.37,1.42-2C330.2,381.931,330.28,381.971,330.36,382.011z"/>
				<path d="M324.28,380.321c-0.25,0.45-0.48,0.91-0.7,1.37c-0.74,1.54-1.33,3.16-1.81,4.81c-0.53,1.64-0.93,3.32-1.31,5
					c-0.37,1.68-0.7,3.38-0.99,5.08c0.09-1.73,0.32-3.45,0.62-5.16c0.29-1.71,0.71-3.4,1.2-5.06c0.53-1.66,1.12-3.31,1.95-4.85
					c0.22-0.41,0.45-0.82,0.69-1.21C324.05,380.301,324.16,380.311,324.28,380.321z"/>
				<path d="M318.13,380.781c-0.1,0.27-0.21,0.54-0.31,0.81c-0.55,1.48-1,3-1.35,4.55c-0.39,1.54-0.69,3.1-0.98,4.67
					c-0.28,1.57-0.53,3.14-0.76,4.72c0.02-1.6,0.18-3.19,0.39-4.78c0.2-1.59,0.51-3.16,0.87-4.72c0.38-1.56,0.84-3.1,1.47-4.59
					c0.08-0.18,0.16-0.37,0.25-0.55C317.85,380.851,317.99,380.811,318.13,380.781z"/>
				<path d="M313.11,382.881c-0.34,1.12-0.66,2.24-0.89,3.38c-0.29,1.27-0.5,2.56-0.7,3.85c-0.19,1.29-0.34,2.59-0.46,3.9
					c-0.08-1.31-0.03-2.63,0.08-3.94c0.12-1.31,0.33-2.62,0.59-3.91c0.23-0.99,0.49-1.96,0.82-2.92
					C312.73,383.111,312.92,382.991,313.11,382.881z"/>
				<path d="M334.78,404.521c0.02,1.87-0.16,3.77-0.73,5.57c-0.22,0.91-0.62,1.77-0.97,2.63c-0.13,0.29-0.28,0.58-0.43,0.86h-0.01
					c-0.08,0.06-0.17,0.12-0.25,0.16c0.53-1.22,1-2.46,1.29-3.75c0.48-1.78,0.66-3.63,0.6-5.46c-0.01-1.84-0.33-3.67-0.84-5.43
					c-0.52-1.77-1.25-3.49-2.2-5.09c1.13,1.49,1.96,3.2,2.56,4.97C334.41,400.761,334.73,402.641,334.78,404.521z"/>
				<path d="M338.37,404.011l-0.05,1.51l-0.21,1.5c-0.04,0.41-0.12,0.81-0.21,1.21c-0.15,0.23-0.3,0.46-0.47,0.69
					c0.13-0.65,0.27-1.29,0.3-1.95l0.15-1.48l0.03-1.48c0.03-0.5,0-0.99-0.04-1.49c-0.05-0.49-0.05-0.98-0.14-1.47
					c-0.2-1.97-0.75-3.89-1.47-5.73c-0.73-1.84-1.7-3.6-2.94-5.16c1.4,1.43,2.47,3.17,3.29,5.01c0.81,1.85,1.37,3.81,1.62,5.82
					c0.08,0.5,0.07,1,0.11,1.51C338.38,403.001,338.4,403.511,338.37,404.011z"/>
				<path d="M340.75,398.451c0,0.08,0,0.14-0.01,0.22c-0.02-0.11-0.04-0.23-0.06-0.34c-0.42-2.08-1.11-4.09-2.01-6.01
					c-0.91-1.91-2.02-3.75-3.46-5.33c1.57,1.46,2.82,3.25,3.8,5.16c0.64,1.25,1.16,2.55,1.58,3.89v0.03
					C340.7,396.851,340.75,397.641,340.75,398.451z"/>
				<path d="M307.7,392.421c-0.82,0.9-1.48,1.91-2.05,2.96c-0.52,0.97-0.96,1.97-1.31,3.01c0-0.51,0.02-1.02,0.07-1.52
					c0.27-0.58,0.57-1.14,0.91-1.68C305.97,394.151,306.74,393.171,307.7,392.421z"/>
				<path d="M308.56,387.581c-0.76,0.86-1.5,1.71-2.22,2.57c0.27-0.53,0.56-1.04,0.88-1.53
					C307.65,388.251,308.09,387.901,308.56,387.581z"/>
				<path d="M308.559,399.159c1.661,0.638,3.346,1.2,5.046,1.697c1.703,0.484,3.414,0.948,5.158,1.229
					c3.465,0.641,7.055,0.815,10.501-0.13c-1.656,0.671-3.448,0.967-5.239,1.048c-1.796,0.067-3.585-0.146-5.351-0.427
					c-1.761-0.327-3.492-0.788-5.185-1.355C311.801,400.644,310.138,399.986,308.559,399.159z"/>
				<path d="M308.559,403.507c1.675,0.672,3.39,1.225,5.126,1.681c1.738,0.449,3.498,0.809,5.277,1.013
					c1.773,0.261,3.569,0.306,5.357,0.254l1.343-0.063l1.335-0.162c0.902-0.056,1.766-0.319,2.663-0.448
					c-1.721,0.535-3.504,0.953-5.32,1.056c-1.811,0.134-3.638,0.084-5.441-0.142c-1.799-0.249-3.585-0.607-5.319-1.14
					C311.849,405.019,310.149,404.368,308.559,403.507z"/>
				<path d="M308.989,407.266c1.577,0.745,3.211,1.345,4.876,1.822c1.664,0.479,3.362,0.838,5.079,1.023
					c0.854,0.135,1.719,0.16,2.58,0.224c0.863-0.011,1.729,0.023,2.591-0.049c1.734-0.055,3.437-0.398,5.148-0.744
					c-1.653,0.546-3.365,0.991-5.118,1.128c-1.747,0.191-3.516,0.141-5.261-0.062c-1.741-0.23-3.47-0.588-5.133-1.153
					C312.09,408.894,310.47,408.194,308.989,407.266z"/>
				<path d="M309.747,410.101c1.49,0.692,3.028,1.256,4.592,1.714c1.567,0.451,3.161,0.802,4.776,0.984
					c1.609,0.239,3.242,0.258,4.862,0.155l1.218-0.095l1.207-0.197c0.816-0.086,1.589-0.365,2.401-0.518
					c-1.535,0.573-3.137,1.05-4.79,1.192c-1.645,0.185-3.315,0.161-4.958-0.043c-1.64-0.227-3.265-0.578-4.829-1.115
					C312.665,411.639,311.142,410.976,309.747,410.101z"/>
			</g>
		</g>
	</g>
</g>
<g id="Travel_bag">
	<g>
		<path style="fill:#263238;" d="M113.791,369.835c0,0,3.56-5.341,9.89-5.736c6.33-0.396,11.67,7.676,11.67,7.676h-2.009
			c0,0-5.112-5.501-8.771-5.501c-3.659,0-7.22,4.549-7.22,4.549L113.791,369.835z"/>
		<g>
			<path style="fill:#263238;" d="M60.08,412.059c2.195-3.652,26.722-1.284,32.261-3.457l2.967,5.145c0,0-4.227,2.346-11.252,1.517
				s-17.627-1.051-20.396,1.386L60.08,412.059z"/>
			<path style="opacity:0.3;enable-background:new    ;" d="M60.08,412.059c2.195-3.652,26.722-1.284,32.261-3.457l2.967,5.145
				c0,0-4.227,2.346-11.252,1.517s-17.627-1.051-20.396,1.386L60.08,412.059z"/>
		</g>
		<path style="fill:#263238;" d="M163.4,400.93c-0.2,0.87-0.42,1.72-0.67,2.55c-1.97,6.81-5.08,12.32-7.32,13.17H91.82
			c-1.8,0-3.46-0.84-4.53-2.22c-0.01-0.02-0.03-0.04-0.05-0.07c-0.23-0.3-0.43-0.62-0.59-0.97c-4.39-9.17-8.82-27.51-2.59-35.87
			c0.65-0.87,1.4-1.66,2.24-2.36c0.06-0.05,0.12-0.1,0.18-0.14c1.27-1.06,2.74-1.93,4.34-2.65c0.01,0,0.01-0.01,0.02-0.01
			c0.01,0,0.02-0.01,0.03-0.01c4.38-1.98,9.76-2.89,15.04-3.28c1.53-0.12,3.05-0.19,4.54-0.22c3.9-0.11,7.54-0.01,10.44,0.07
			c10.22,0.26,18.26,3.3,23.74,2.77c2.17-0.21,4.15-0.04,6.04,0.48c0.56,0.16,1.11,0.34,1.66,0.56c2.29,0.9,4.5,2.32,6.88,4.23
			C165.39,381.92,165.48,392.11,163.4,400.93z"/>
		<path style="opacity:0.1;fill:#FFFFFF;enable-background:new    ;" d="M163.4,400.93c-0.2,0.87-0.42,1.72-0.67,2.55
			c-1.97,6.81-5.08,12.32-7.32,13.17H91.82c-1.8,0-3.46-0.84-4.53-2.22c-0.01-0.02-0.03-0.04-0.05-0.07
			c-0.23-0.3-0.43-0.62-0.59-0.97c-4.39-9.17-8.82-27.51-2.59-35.87c0.65-0.87,1.4-1.66,2.24-2.36c0.06-0.05,0.12-0.1,0.18-0.14
			c1.27-1.06,2.74-1.93,4.34-2.65c0.01,0,0.01-0.01,0.02-0.01c0.01,0,0.02-0.01,0.03-0.01c4.38-1.98,9.76-2.89,15.04-3.28
			c1.53-0.12,3.05-0.19,4.54-0.22c3.9-0.11,7.54-0.01,10.44,0.07c10.22,0.26,18.26,3.3,23.74,2.77c2.17-0.21,4.15-0.04,6.04,0.48
			c0.56,0.16,1.11,0.34,1.66,0.56c2.29,0.9,4.5,2.32,6.88,4.23C165.39,381.92,165.48,392.11,163.4,400.93z"/>
		<g>
			<path style="opacity:0.2;enable-background:new    ;" d="M153.66,400.3c-4.55,0-13.65,2.17-27.1-0.79
				c-8.736-1.929-15.447-1.019-19.093-0.145c-0.144-2.03-0.312-4.228-0.487-6.646c-1.19-16.25-10.46-23.07-16.11-20.37
				c-0.01,0-0.02,0.01-0.03,0.01c-0.01,0-0.01,0.01-0.02,0.01c-1.65,0.8-3.09,1.69-4.34,2.65c-0.06,0.04-0.12,0.09-0.18,0.14
				c-0.84,0.7-1.59,1.49-2.24,2.36c-6.23,8.36-1.8,26.7,2.59,35.87c0.16,0.35,0.36,0.67,0.59,0.97c0.02,0.03,0.04,0.05,0.05,0.07
				c1.09,1.23,2.65,1.95,4.32,1.95h11.41c4.649,0,5.201-4.257,4.682-13.41c0.786-0.453,1.753-1.035,2.838-1.74
				c2.83-1.84,13.84-0.93,18.59,0.85s17.21,2.57,23.24,1.59c4.19-0.68,8.26-0.42,10.36-0.19c0.25-0.83,0.47-1.68,0.67-2.55
				C161.32,400.71,156.99,400.3,153.66,400.3z"/>
			<path style="opacity:0.2;enable-background:new    ;" d="M112.32,377.35c2.77,10.09,4.67,13.65,5.4,14.64
				c0.73,0.99,20.87,3.38,24.65,3.37c3.77-0.01,10.24-0.58,13.04-1.28c2.57-0.65,3.4-13.59-3.08-21.35c-0.55-0.22-1.1-0.4-1.66-0.56
				c3.53,7.92,3.61,17.62,3.19,18.97c-0.6,1.92-6.53,1.64-9.3,1.58c-2.77-0.05-19.98-1.13-21.76-1.83
				c-1.79-0.71-2.77-1.67-4.15-3.45c-1.39-1.78-1.58-7.91-4.09-13.2c-0.91-1.9-2.48-3.77-4.11-5.39c-1.49,0.03-3.01,0.1-4.54,0.22
				C108.52,370.54,111.14,373.05,112.32,377.35z"/>
		</g>
		<path style="fill:#263238;" d="M92.341,386.644l-5.538,1.389c0,0-3.933,11.275-1.582,16.022
			c2.351,4.747-16.041,11.289-25.14,8.004l3.579,4.592c0,0,21.758-1.37,25.912-9.654c4.154-8.283-1.78-9.556-2.176-11.887
			C87,392.78,92.341,386.644,92.341,386.644z"/>
		<path style="opacity:0.1;fill:#FFFFFF;enable-background:new    ;" d="M92.341,386.644l-5.538,1.389
			c0,0-3.933,11.275-1.582,16.022c2.351,4.747-16.041,11.289-25.14,8.004l3.579,4.592c0,0,21.758-1.37,25.912-9.654
			c4.154-8.283-1.78-9.556-2.176-11.887C87,392.78,92.341,386.644,92.341,386.644z"/>
	</g>
</g>
<g id="Character">
	<g>
		<g id="_x3C_Group_x3E__45_">
			<path style="fill:#E4897B;" d="M141.267,154.016c0,0-21.398-11.975-25.827-15.076c-4.429-3.1-28.126-26.354-29.455-27.019
				c0,0,0.886-2.658-1.107-4.208c-1.993-1.55-9.744-6.644-10.852-6.644s-3.986,10.852-3.543,13.509
				c0.443,2.658,11.295,3.322,11.295,3.322s22.589,26.303,26.133,29.983c3.543,3.68,27.683,19.404,27.683,19.404L141.267,154.016z"
				/>
			<g>
				<path style="fill:#407BFF;" d="M150.051,156.209c0,0,4.693,9.476-6.7,24.509l-25.107-18.459l10.022-18.151L150.051,156.209z"/>
				<path style="opacity:0.6;fill:#FFFFFF;enable-background:new    ;" d="M143.35,180.72L131.49,172l-1.55-1.14l-6.69-4.91
					l-5.01-3.69l3.69-6.67l2.09-3.79l4.25-7.69l4.1,2.28l3.54,1.96l14.14,7.86c0,0,0.6,1.21,0.85,3.45
					C151.35,163.69,150.67,171.05,143.35,180.72z"/>
				<path style="opacity:0.2;enable-background:new    ;" d="M143.35,180.72L131.49,172c4.07-8.42,14.6-11.39,19.41-12.34
					C151.35,163.69,150.67,171.05,143.35,180.72z"/>
				<g style="opacity:0.2;">
					<polygon style="fill:#FFFFFF;" points="135.91,148.35 132.37,150.41 132.37,146.39 					"/>
					<polygon style="fill:#FFFFFF;" points="128.21,153.04 123.77,159.27 121.93,155.59 124.02,151.8 					"/>
					<polygon style="fill:#FFFFFF;" points="131.49,162.41 129.94,170.86 123.25,165.95 					"/>
					<polygon style="fill:#FFFFFF;" points="134.56,157.593 137.033,163.92 142.165,156.945 					"/>
				</g>
			</g>
			<path style="fill:#E4897B;" d="M196.723,151.727c0,0,21.398-11.975,25.827-15.076c4.429-3.1,28.126-26.354,29.455-27.019
				c0,0-0.886-2.658,1.107-4.208c1.993-1.55,9.745-6.644,10.852-6.644s3.986,10.852,3.543,13.509
				c-0.443,2.658-11.295,3.322-11.295,3.322s-22.589,26.303-26.133,29.983c-3.543,3.68-27.683,19.404-27.683,19.404L196.723,151.727
				z"/>
			<path style="fill:#E4897B;" d="M171.15,278.45c0,0-0.46,7.57-1.19,17.65c-0.46,6.28-1.03,13.53-1.65,20.54
				c-0.84,9.42-1.79,18.4-2.74,23.98c-0.87,5.13-12.42,68.84-12.42,68.84h-7.74c2.44-59.41,6.22-82.45,6.36-85.91
				c0.05-1.13,0.09-2.7,0.14-4.57c0.15-6.78,0.28-17.49,0.36-25.28c0.06-5.62,0.09-9.71,0.09-9.71L171.15,278.45z"/>
			<path style="fill:#E4897B;" d="M201.02,326.52c-0.27,5.19-3.36,82.68-3.36,82.68h-8.51c-4.35-61.72-2.7-83.15-3.48-87.43
				c0-0.02-0.01-0.03-0.01-0.05c-1.33-7.28-2.58-16.85-3.44-23.95c-0.69-5.71-1.12-9.82-1.12-9.82l17.35-7.5
				c0,0,1.05,8.96,1.84,19.78c0.39,5.4,0.73,11.27,0.83,16.73C201.19,320.38,201.17,323.64,201.02,326.52z"/>
			<path style="opacity:0.2;enable-background:new    ;" d="M152.27,293.7l17.69,2.4c-0.46,6.28-1.03,13.53-1.65,20.54l-16.4,2.34
				C152.06,312.2,152.19,301.49,152.27,293.7z"/>
			<path style="opacity:0.2;enable-background:new    ;" d="M201.12,316.96l-15.46,4.76c-1.33-7.28-2.58-16.85-3.44-23.95
				l18.07,2.46C200.68,305.63,201.02,311.5,201.12,316.96z"/>
			<path style="fill:#407BFF;" d="M154.98,407.083h-10.209c-0.344,0.002-0.641,0.241-0.716,0.577l-1.657,7.483
				c-0.142,0.67,0.286,1.328,0.957,1.47c0.09,0.019,0.181,0.028,0.273,0.027c3.303-0.053,5.709-0.257,9.856-0.257
				c2.555,0,10.263,0.267,13.79,0.267c3.528,0,3.987-3.485,2.544-3.806c-6.478-1.411-11.353-3.367-13.427-5.228
				C156.007,407.265,155.501,407.073,154.98,407.083z"/>
			<path style="fill:#407BFF;" d="M198.275,406.816h-10.209c-0.344,0.002-0.641,0.241-0.716,0.577l-1.657,7.483
				c-0.142,0.67,0.286,1.328,0.957,1.47c0.09,0.019,0.181,0.028,0.273,0.027c3.303-0.053,5.709-0.257,9.856-0.257
				c2.555,0,10.263,0.267,13.79,0.267c3.528,0,3.987-3.485,2.544-3.806c-6.478-1.411-11.353-3.367-13.427-5.228
				C199.302,406.997,198.797,406.806,198.275,406.816z"/>
			<path style="fill:#263238;" d="M171.845,312.275c0.081-0.681,0.163-1.398,0.244-2.192c1.037-10.241,2.095-22.532,3.036-34.377
				c3.455,9.288,4.945,22.337,6.741,36.569h21.008c-1.732-36.837-6.295-66.794-8.71-79.57h-44.599
				c-0.055,4.578-0.565,48.999-1.711,79.57H171.845z"/>
			<path style="opacity:0.2;fill:#FFFFFF;enable-background:new    ;" d="M171.845,312.275c0.081-0.681,0.163-1.398,0.244-2.192
				c1.037-10.241,2.095-22.532,3.036-34.377c3.455,9.288,4.945,22.337,6.741,36.569h21.008c-1.732-36.837-6.295-66.794-8.71-79.57
				h-44.599c-0.055,4.578-0.565,48.999-1.711,79.57H171.845z"/>
			<g>
				<path style="fill:#E4897B;" d="M177.97,141.493c-0.104,0.408-0.221,0.807-0.363,1.189c-0.824,2.308-2.313,4.208-4.158,5.539
					c-0.482,0.353-0.993,0.667-1.521,0.94c-2.792,1.438-6.108,1.706-9.104,0.403c-1.226-0.519-2.413-1.316-3.475-2.404
					c-4.211-4.253-4.099-9.162-4.573-17.473c-0.13-1.789,0.153-3.582,0.85-5.229c2.411-5.807,9.08-8.552,14.877-6.139
					C178.654,121.644,179.772,134.011,177.97,141.493z"/>
				<path style="opacity:0.2;enable-background:new    ;" d="M173.449,148.222c-0.482,0.353-0.993,0.667-1.521,0.94
					c-2.792,1.438-6.108,1.706-9.104,0.403c0.585-1.606,1.485-2.821,1.485-2.821S169.275,145.979,173.449,148.222z"/>
				<path style="fill:#E4897B;" d="M156.723,159.002c4.094,3.72,14.125,2.345,14.125,2.345s6.261-1.714,4.946-3.67
					c-3.688-0.609-5.474-2.33-6.211-4.533c-0.427-1.283-0.492-2.726-0.374-4.212c0.053-0.78,0.171-1.572,0.31-2.352l-12.4-9.183
					C158.743,143.459,160.732,154.608,156.723,159.002z"/>
				<path style="fill:#263238;" d="M173.449,133.925l1.792,0.678l-0.896-3.665c0,0,2.628-3.947,0-7.471c0,0,7.243-2.198,3.152-6.023
					c-1.522-1.422-3.411,0-8.405-2.178c-2.711-1.182-11.19-1.274-11.613,2.178c0,0-6.108-0.038-6.766,10.393
					c-0.659,10.432,6.468,16.439,6.468,16.439s7.374,1.746,10.955-1.214C171.717,140.101,173.449,133.925,173.449,133.925z"/>
				<path style="fill:#E4897B;" d="M168.726,134.52c0.497,1.808,1.492,3.136,2.766,3.693c1.693,0.718,2.804-1.667,2.56-4.166
					c-0.232-2.214-1.378-5.332-3.19-4.921C169.05,129.538,168.136,132.285,168.726,134.52z"/>
			</g>
			<path style="opacity:0.2;enable-background:new    ;" d="M175.126,275.657c-0.941,11.845-1.999,24.16-3.036,34.401
				c-1.518-14.785-3.378-25.325-3.378-25.325s-1.743-1.432-6.532-9.076c-4.789-7.654,0-21.915,0-21.915
				C162.03,266.998,175.126,275.657,175.126,275.657z"/>
			<polygon style="fill:#407BFF;" points="204.385,310.537 203.462,314.011 181.103,314.011 181.103,310.804 			"/>
			<polygon style="fill:#407BFF;" points="172.934,311.02 172.265,314.227 146.943,314.227 145.413,311.02 			"/>
			<g>
				<path style="fill:#407BFF;" d="M176.048,156.592c0,0-3.637-5.754-12.812-6.166c-9.175-0.412-9.865,5.905-9.865,5.905
					L176.048,156.592z"/>
				<path style="opacity:0.5;fill:#FFFFFF;enable-background:new    ;" d="M176.048,156.592c0,0-3.637-5.754-12.812-6.166
					c-9.175-0.412-9.865,5.905-9.865,5.905L176.048,156.592z"/>
			</g>
			<path style="fill:#407BFF;" d="M143.121,153.038c0,0,4.733,42.71-0.956,93.534l53.73-3.278
				c-0.609-54.839-7.951-89.372-7.951-89.372s-13.859,2.904-25.121,2.484C152.217,156.011,143.121,153.038,143.121,153.038z"/>
			<g>
				<path style="fill:#407BFF;" d="M187.944,153.922c0,0,7.175,16.776,7.951,33.762c0.776,16.986-29.167,40.272-29.167,40.272
					s-23.068-15.879-40.87-14.44s-23.341,7.769-23.341,7.769s13.846-29.606,37.947-39.928c0,0-5.001-17.051,2.658-28.32
					C143.121,153.038,159.78,158.456,187.944,153.922z"/>
				<path style="opacity:0.6;fill:#FFFFFF;enable-background:new    ;" d="M195.89,187.68c0.02,0.47,0.02,0.95-0.01,1.44
					c-0.04,0.73-0.13,1.47-0.27,2.21c-0.29,1.65-0.82,3.34-1.53,5.04v0.01c-1.84,4.39-4.88,8.86-8.28,13.01
					c-1.7,2.08-3.5,4.08-5.28,5.94c-7.01,7.36-13.79,12.63-13.79,12.63s-8.54-5.88-19.23-10.15c-2.05-0.82-4.18-1.59-6.35-2.24
					h-0.01c-5.1-1.53-10.39-2.45-15.28-2.05c-6.25,0.51-10.99,1.61-14.51,2.84c-0.81,0.28-1.56,0.58-2.25,0.87
					c-0.21,0.09-0.42,0.18-0.62,0.27c-1.93,0.86-3.33,1.71-4.28,2.39c-0.15,0.1-0.29,0.21-0.42,0.31c-0.26,0.19-0.47,0.36-0.65,0.52
					c-0.09,0.07-0.17,0.14-0.24,0.21c-0.07,0.05-0.12,0.11-0.17,0.16c-0.05,0.05-0.09,0.09-0.12,0.12l-0.07,0.07
					c0.02-0.05,0.12-0.26,0.3-0.62c0.08-0.15,0.17-0.34,0.28-0.55c0.28-0.56,0.67-1.31,1.18-2.22c0.07-0.13,0.14-0.26,0.22-0.4
					c0.12-0.22,0.25-0.45,0.39-0.69c0.13-0.24,0.27-0.49,0.42-0.74c0.58-1.02,1.26-2.16,2.03-3.39c3.27-5.24,8.16-12.1,14.5-18.34
					l0.01-0.01c1.95-1.93,4.02-3.78,6.24-5.51c3.75-2.94,7.88-5.53,12.36-7.45c0,0-1.78-6.07-1.58-13.37
					c0.03-1.39,0.14-2.83,0.35-4.27c0.52-3.68,1.68-7.42,3.89-10.68c0,0,2.61,0.85,7.5,1.59c2.68,0.41,6.04,0.78,10.03,0.97
					c5.55,0.27,12.32,0.17,20.18-0.71c2.28-0.25,4.65-0.57,7.11-0.97c0,0,0.08,0.19,0.23,0.56c0.62,1.53,2.41,6.11,4.11,12.21
					c0.44,1.59,0.88,3.29,1.3,5.07c0.38,1.65,0.74,3.37,1.06,5.14v0.01C195.26,180.38,195.72,184.02,195.89,187.68z"/>
				<g style="opacity:0.2;enable-background:new    ;">
					<path style="fill:#FFFFFF;" d="M188.96,201.31l-3.16,8.08c-1.7,2.08-3.5,4.08-5.28,5.94l-6.43-12.04L188.96,201.31z"/>
					<path style="fill:#FFFFFF;" d="M134.56,193.59l-12.7,0.73c1.95-1.93,4.02-3.78,6.24-5.51L134.56,193.59z"/>
					<path style="fill:#FFFFFF;" d="M149.21,161.6l-1.36,13.2l-8.97-6.81c0.03-1.39,0.14-2.83,0.35-4.27L149.21,161.6z"/>
					<polygon style="fill:#FFFFFF;" points="153.371,196.376 149.213,183.703 161.857,181.358 					"/>
					<polygon style="fill:#FFFFFF;" points="175.126,184.297 175.126,193.791 184.209,190.527 					"/>
					<path style="fill:#FFFFFF;" d="M151.77,211.79l-4.27,6.02c-2.05-0.82-4.18-1.59-6.35-2.24h-0.01l-3.22-7.34L151.77,211.79z"/>
					<polygon style="fill:#FFFFFF;" points="119.33,202.692 125.857,205.462 119.33,209.912 					"/>
					<path style="fill:#FFFFFF;" d="M111.35,216.36c-6.5,2.27-8.83,4.93-8.83,4.93s1.66-3.55,4.83-8.62L111.35,216.36z"/>
					<polygon style="fill:#FFFFFF;" points="164.71,204.077 159.088,209.912 167.589,211.396 					"/>
					<polygon style="fill:#FFFFFF;" points="164.71,167.484 171.316,176.385 176.048,166.297 					"/>
					<path style="fill:#FFFFFF;" d="M194.64,176.9l-8.45-5.56l6.09-4.65C193.14,169.77,193.98,173.24,194.64,176.9z"/>
					<path style="fill:#FFFFFF;" d="M195.88,189.12c-0.12,2.34-0.77,4.78-1.8,7.25l-3.54-8.71L195.88,189.12z"/>
					<path style="fill:#FFFFFF;" d="M188.17,154.48l-5.35,5.49l-1.99-5.08c2.28-0.25,4.65-0.57,7.11-0.97
						C187.94,153.92,188.02,154.11,188.17,154.48z"/>
					<path style="fill:#FFFFFF;" d="M160.65,155.6l-3.93,8.32l-6.1-9.29C153.3,155.04,156.66,155.41,160.65,155.6z"/>
				</g>
				<path style="opacity:0.2;enable-background:new    ;" d="M195.89,187.68c0.02,0.47,0.02,0.95-0.01,1.44
					c-0.04,0.73-0.13,1.47-0.27,2.21c-6.98-11.1-5.34-21.14-5.34-21.14l3.31,1.57c0.38,1.65,0.74,3.37,1.06,5.14v0.01
					C195.26,180.38,195.72,184.02,195.89,187.68z"/>
			</g>
			<g>
				<path style="fill:#407BFF;" d="M167.527,109.725c11.868-4.088,14.849,11.721,3.061,22.41
					c-11.788,10.689-25.326,11.967-26.865,6.58C142.185,133.33,149.414,115.965,167.527,109.725z"/>
				<path style="fill:#407BFF;" d="M155.635,108.934c6.09-0.025,14.744,6.198,14.744,6.198s1.236,6.593-4.829,12.396
					c-6.066,5.802-11.529,6.725-14.929,4.484c-3.4-2.242-4.323-10.977-4.323-10.977s0.867-3.397,4.323-4.452
					C150.62,116.582,151.62,108.951,155.635,108.934z"/>
				<path style="opacity:0.2;enable-background:new    ;" d="M165.55,127.53c-6.07,5.8-11.53,6.72-14.93,4.48
					c-0.56-0.37-1.05-0.91-1.48-1.56c-2.2-3.31-2.84-9.42-2.84-9.42c5.8,6.96,12.52-0.23,13.45-5.11c0.52-2.77-0.19-5.24-1.55-6.69
					c3.99,0.86,8.38,3.42,10.64,4.87c0.96,0.61,1.54,1.03,1.54,1.03S171.62,121.73,165.55,127.53z"/>
				<path style="opacity:0.6;fill:#FFFFFF;enable-background:new    ;" d="M165.55,127.53c-6.07,5.8-11.53,6.72-14.93,4.48
					c-0.56-0.37-1.05-0.91-1.48-1.56c6.08,1.81,13.32-1.2,17.21-6.61c2.55-3.55,2.83-7.1,2.49-9.74c0.96,0.61,1.54,1.03,1.54,1.03
					S171.62,121.73,165.55,127.53z"/>
			</g>
			<g>
				<path style="fill:#407BFF;" d="M187.94,153.92c0,0-4.693,9.476,6.7,24.509l25.107-18.459l-10.022-18.151L187.94,153.92z"/>
				<path style="opacity:0.6;fill:#FFFFFF;enable-background:new    ;" d="M219.75,159.97l-6.55,4.81l-9.69,7.13l-8.87,6.52
					c-0.58-0.76-1.11-1.51-1.61-2.24c-1.1-1.62-2.01-3.17-2.76-4.64c-2.56-5-3.27-9.1-3.29-12.08c-0.02-3.58,0.96-5.55,0.96-5.55
					l5.58-3.1l9.61-5.33l4.22-2.35l2.38-1.32L219.75,159.97z"/>
				<g style="opacity:0.2;">
					<polygon style="fill:#FFFFFF;" points="213.2,164.78 203.51,171.91 199.24,162.41 					"/>
					<polygon style="fill:#FFFFFF;" points="212.3,149.5 203.36,153.04 203.13,145.49 207.35,143.14 					"/>
					<path style="fill:#FFFFFF;" d="M196.72,156.94l-9.74,2.53c-0.02-3.58,0.96-5.55,0.96-5.55l5.58-3.1L196.72,156.94z"/>
					<path style="fill:#FFFFFF;" d="M194.64,169.07l-1.61,7.12c-1.1-1.62-2.01-3.17-2.76-4.64L194.64,169.07z"/>
				</g>
			</g>
		</g>
	</g>
</g>
<g id="Luggage">
	<g>
		
			<rect x="244.976" y="260.288" transform="matrix(-0.9969 -0.0781 0.0781 -0.9969 478.9581 601.6166)" style="fill:none;stroke:#263238;stroke-width:3;stroke-miterlimit:10;" width="12.534" height="62.311"/>
		<g>
			<path style="fill:#263238;" d="M245.77,408.542c0.345,0.027,1.641,0.129,1.986,0.156c2.233,0.175,3.907,2.054,3.732,4.287
				c-0.175,2.233-2.121,3.828-4.354,3.653c-0.345-0.027-1.642-0.129-1.986-0.156c-2.233-0.175-3.907-2.054-3.732-4.287
				C241.59,409.962,243.537,408.367,245.77,408.542z"/>
			<path style="opacity:0.1;fill:#FFFFFF;enable-background:new    ;" d="M241.421,412.122c-0.175,2.233,1.493,4.185,3.726,4.36
				c2.233,0.175,4.185-1.493,4.36-3.726c0.175-2.233-1.493-4.185-3.726-4.36C243.548,408.221,241.596,409.889,241.421,412.122z"/>
		</g>
		<g>
			<path style="fill:#263238;" d="M234.852,407.687c0.345,0.027,1.641,0.129,1.986,0.156c2.233,0.175,3.907,2.054,3.732,4.287
				c-0.175,2.233-2.121,3.828-4.354,3.653c-0.345-0.027-1.642-0.129-1.986-0.156c-2.233-0.175-3.907-2.054-3.732-4.287
				C230.673,409.107,232.619,407.512,234.852,407.687z"/>
			<path style="opacity:0.2;fill:#FFFFFF;enable-background:new    ;" d="M230.503,411.267c-0.175,2.233,1.493,4.185,3.726,4.36
				c2.233,0.175,4.185-1.493,4.36-3.726c0.175-2.233-1.493-4.185-3.726-4.36C232.63,407.366,230.678,409.034,230.503,411.267z"/>
		</g>
		<path style="fill:#263238;" d="M233.032,408.886l15.466,1.211c1.483,0.116,2.78-0.992,2.896-2.475l7.366-94.034
			c0.116-1.483-0.992-2.78-2.475-2.896l-15.467-1.212c-1.483-0.116-2.78,0.992-2.896,2.475l-7.366,94.034
			C230.441,407.474,231.549,408.77,233.032,408.886z"/>
		<path style="opacity:0.2;fill:#FFFFFF;enable-background:new    ;" d="M240.748,409.491l7.751,0.607
			c1.483,0.116,2.78-0.992,2.896-2.475l7.366-94.034c0.116-1.483-0.992-2.78-2.475-2.896l-7.751-0.607
			c-1.483-0.116-2.78,0.992-2.896,2.475l-7.366,94.034C238.157,408.078,239.265,409.375,240.748,409.491z"/>
		<path style="fill:#263238;" d="M247.132,261.743l13.009,1.019c1.101,0.086,2.064-0.736,2.15-1.838l0.096-1.223
			c0.086-1.101-0.736-2.064-1.838-2.15l-13.009-1.019c-1.101-0.086-2.064,0.736-2.15,1.838l-0.096,1.223
			C245.208,260.694,246.031,261.656,247.132,261.743z"/>
		<path style="opacity:0.2;fill:#FFFFFF;enable-background:new    ;" d="M247.132,261.743l13.009,1.019
			c1.101,0.086,2.064-0.736,2.15-1.838l0.096-1.223c0.086-1.101-0.736-2.064-1.838-2.15l-13.009-1.019
			c-1.101-0.086-2.064,0.736-2.15,1.838l-0.096,1.223C245.208,260.694,246.031,261.656,247.132,261.743z"/>
		<path style="opacity:0.2;enable-background:new    ;" d="M247.132,261.743l1.091,0.085c1.101,0.086,2.064-0.736,2.15-1.838
			l0.096-1.223c0.086-1.101-0.736-2.064-1.838-2.15l-1.091-0.085c-1.101-0.086-2.064,0.736-2.15,1.838l-0.096,1.223
			C245.208,260.694,246.031,261.656,247.132,261.743z"/>
		<path style="fill:#407BFF;" d="M287.54,320.642l-6.655,84.963c-0.244,3.12-2.982,5.461-6.102,5.216l-31.042-2.432
			c-2.189-0.172-3.826-2.1-3.655-4.289l6.919-88.325c0.172-2.201,2.089-3.839,4.278-3.668l31.042,2.432
			C285.444,314.783,287.784,317.522,287.54,320.642z"/>
		<path style="opacity:0.2;fill:#FFFFFF;enable-background:new    ;" d="M287.54,320.642l-6.655,84.963
			c-0.244,3.12-2.982,5.461-6.102,5.216l-31.042-2.432c-2.189-0.172-3.826-2.1-3.655-4.289l6.919-88.325
			c0.172-2.201,2.089-3.839,4.278-3.668l31.042,2.432C285.444,314.783,287.784,317.522,287.54,320.642z"/>
		<path style="opacity:0.2;enable-background:new    ;" d="M266.22,313.28l-0.01,0.12l-1.11-0.09c-2.19-0.17-4.1,1.47-4.28,3.67
			l-6.92,88.34c-0.14,1.86,1.03,3.52,2.73,4.08l-12.89-1.01c-2.18-0.17-3.83-2.1-3.66-4.28l6.92-88.33
			c0.18-2.21,2.09-3.84,4.28-3.67L266.22,313.28z"/>
		<path style="opacity:0.2;enable-background:new    ;" d="M259.007,405.156l-0.462-0.036c-0.599-0.047-1.047-0.57-1-1.169
			l6.784-86.608c0.047-0.599,0.571-1.047,1.17-1l0.462,0.036c0.599,0.047,1.047,0.57,1,1.169l-6.784,86.608
			C260.129,404.755,259.605,405.203,259.007,405.156z"/>
		<path style="opacity:0.2;enable-background:new    ;" d="M265.21,406.076l-0.462-0.036c-0.599-0.047-1.047-0.57-1-1.169
			l6.784-86.608c0.047-0.599,0.57-1.047,1.169-1l0.462,0.036c0.599,0.047,1.046,0.57,1,1.169l-6.784,86.609
			C266.333,405.675,265.809,406.123,265.21,406.076z"/>
		<path style="opacity:0.2;enable-background:new    ;" d="M271.414,406.439l-0.462-0.036c-0.599-0.047-1.047-0.57-1-1.169
			l6.784-86.608c0.047-0.599,0.571-1.047,1.17-1l0.462,0.036c0.599,0.047,1.047,0.571,1,1.17l-6.784,86.608
			C272.536,406.038,272.013,406.486,271.414,406.439z"/>
		<path style="opacity:0.2;enable-background:new    ;" d="M277.617,406.802l-0.462-0.036c-0.599-0.047-1.047-0.571-1-1.17
			l6.784-86.608c0.047-0.599,0.57-1.047,1.169-1l0.462,0.036c0.599,0.047,1.047,0.571,1,1.17l-6.784,86.608
			C278.74,406.401,278.216,406.849,277.617,406.802z"/>
	</g>
</g>
</svg>
